<svg xmlns="http://www.w3.org/2000/svg" xmlns:xlink="http://www.w3.org/1999/xlink" width="384" zoomAndPan="magnify" viewBox="0 0 288 112.499997" height="150" preserveAspectRatio="xMidYMid meet" version="1.0"><defs><clipPath id="564b9857dd"><path d="M 51.148438 0 L 237 0 L 237 112 L 51.148438 112 Z M 51.148438 0 " clip-rule="nonzero"/></clipPath></defs><g clip-path="url(#564b9857dd)"><path fill="#0ea5e9" d="M 94.980469 29.210938 L 129.996094 29.210938 L 129.996094 31.992188 L 98.191406 31.992188 L 98.191406 52.9375 L 128.101562 52.9375 L 128.101562 55.722656 L 98.191406 55.722656 L 98.191406 78.71875 L 130.359375 78.71875 L 130.359375 81.5 L 94.980469 81.5 Z M 133.132812 29.210938 L 136.851562 29.210938 L 153.339844 52.203125 L 170.1875 29.210938 L 193.109375 0 L 155.453125 54.625 L 174.859375 81.5 L 170.988281 81.5 L 153.339844 57.039062 L 135.613281 81.5 L 131.820312 81.5 L 151.367188 54.625 Z M 176.242188 31.992188 L 176.242188 29.210938 L 216.144531 29.210938 L 216.144531 31.992188 L 197.761719 31.992188 L 197.761719 81.5 L 194.554688 81.5 L 194.554688 31.992188 Z M 51.179688 29.210938 L 55.191406 29.210938 L 110.511719 111.996094 L 87.652344 81.503906 L 54.535156 33.164062 L 54.390625 81.503906 L 51.179688 81.503906 Z M 215.820312 77.878906 C 215.167969 77.878906 214.675781 77.367188 214.675781 76.710938 C 214.675781 76.054688 215.167969 75.546875 215.820312 75.546875 C 216.484375 75.546875 216.96875 76.054688 216.96875 76.710938 C 216.96875 77.367188 216.484375 77.878906 215.820312 77.878906 Z M 218.972656 74.8125 L 220.691406 74.8125 C 220.714844 75.746094 221.398438 76.367188 222.394531 76.367188 C 223.511719 76.367188 224.140625 75.695312 224.140625 74.4375 L 224.140625 66.464844 L 225.894531 66.464844 L 225.894531 74.445312 C 225.894531 76.710938 224.582031 78.015625 222.410156 78.015625 C 220.375 78.015625 218.972656 76.753906 218.972656 74.8125 Z M 228.179688 74.710938 L 229.914062 74.710938 C 230.058594 75.785156 231.105469 76.460938 232.613281 76.460938 C 234.019531 76.460938 235.046875 75.738281 235.046875 74.734375 C 235.046875 73.875 234.390625 73.359375 232.902344 73.007812 L 231.449219 72.65625 C 229.414062 72.179688 228.484375 71.195312 228.484375 69.535156 C 228.484375 67.527344 230.125 66.195312 232.582031 66.195312 C 234.871094 66.195312 236.539062 67.527344 236.640625 69.429688 L 234.9375 69.429688 C 234.777344 68.386719 233.871094 67.738281 232.558594 67.738281 C 231.175781 67.738281 230.253906 68.40625 230.253906 69.421875 C 230.253906 70.226562 230.847656 70.6875 232.316406 71.03125 L 233.558594 71.335938 C 235.867188 71.875 236.820312 72.816406 236.820312 74.507812 C 236.820312 76.664062 235.148438 78.015625 232.480469 78.015625 C 229.984375 78.015625 228.304688 76.730469 228.179688 74.710938 Z M 228.179688 74.710938 " fill-opacity="1" fill-rule="nonzero"/></g></svg>