<svg xmlns="http://www.w3.org/2000/svg" xmlns:xlink="http://www.w3.org/1999/xlink" width="384" zoomAndPan="magnify" viewBox="0 0 288 112.499997" height="150" preserveAspectRatio="xMidYMid meet" version="1.0"><defs><clipPath id="6f4c4adc76"><path d="M 91 0 L 197.832031 0 L 197.832031 112 L 91 112 Z M 91 0 " clip-rule="nonzero"/></clipPath><clipPath id="cdcbd4fc0b"><path d="M 152.46875 44.691406 L 156.722656 44.691406 L 156.722656 63.121094 L 152.46875 63.121094 Z M 152.46875 44.691406 " clip-rule="nonzero"/></clipPath><clipPath id="2c938ab7ff"><path d="M 156.695312 45.847656 C 154.601562 62.871094 154.082031 63.167969 153.707031 63.09375 C 153.257812 63.09375 152.660156 62.347656 152.660156 61.972656 C 152.660156 61.527344 153.558594 60.78125 153.855469 60.78125 C 154.304688 60.855469 155.050781 62.125 154.902344 62.421875 C 154.753906 62.796875 153.257812 63.019531 152.960938 62.796875 C 152.734375 62.496094 153.035156 61.152344 153.40625 60.855469 C 153.632812 60.707031 154.230469 60.78125 154.453125 61.003906 C 154.753906 61.226562 155.050781 61.898438 154.976562 62.273438 C 154.828125 62.648438 154.082031 63.167969 153.707031 63.09375 C 153.257812 63.09375 152.886719 62.648438 152.660156 61.972656 C 151.988281 59.660156 153.332031 47.5625 154.453125 45.546875 C 154.828125 44.949219 155.347656 44.652344 155.722656 44.726562 C 156.097656 44.726562 156.695312 45.847656 156.695312 45.847656 " clip-rule="nonzero"/></clipPath></defs><path fill="#0f0f0f" d="M 190.304688 69.039062 C 190.304688 69.042969 190.300781 69.046875 190.296875 69.046875 C 190.289062 69.046875 190.285156 69.042969 190.285156 69.039062 C 190.285156 69.03125 190.289062 69.03125 190.296875 69.03125 C 190.300781 69.03125 190.304688 69.03125 190.304688 69.039062 Z M 190.304688 69.039062 " fill-opacity="1" fill-rule="nonzero"/><path fill="#0ea5e9" d="M 176.585938 68.160156 L 176.597656 68.167969 L 176.597656 68.171875 L 176.582031 68.179688 C 175.910156 68.421875 175.355469 68.523438 174.886719 68.734375 C 174.410156 68.921875 174.027344 69.269531 173.800781 69.714844 L 173.796875 69.722656 C 173.507812 70.257812 173.257812 71.199219 173.332031 72.804688 C 173.523438 72.945312 173.753906 73.050781 173.992188 73.125 L 174.007812 73.128906 C 174.792969 73.371094 176.101562 73.527344 177.5625 73.503906 C 180.480469 73.472656 184.070312 72.78125 185.976562 71.886719 C 187.621094 71.101562 189.027344 70.160156 190.28125 69.039062 C 183.914062 70.371094 180.316406 70.015625 178.109375 69.09375 C 177.535156 68.84375 177.03125 68.535156 176.585938 68.160156 Z M 176.585938 68.160156 " fill-opacity="1" fill-rule="nonzero"/><path fill="#0ea5e9" d="M 170.058594 19.210938 L 170.085938 19.253906 L 170.117188 19.289062 Z M 170.058594 19.210938 " fill-opacity="1" fill-rule="nonzero"/><path fill="#0ea5e9" d="M 145.699219 89.320312 C 145.695312 89.203125 145.699219 89.082031 145.695312 88.96875 C 145.695312 88.921875 145.6875 88.890625 145.6875 88.84375 Z M 145.699219 89.320312 " fill-opacity="1" fill-rule="nonzero"/><path fill="#0ea5e9" d="M 140.816406 68.894531 C 140.546875 68.761719 140.234375 68.664062 139.894531 68.617188 L 139.882812 68.617188 L 139.882812 68.609375 L 139.785156 68.609375 C 139.542969 68.632812 139.191406 68.714844 138.507812 69.476562 C 136.914062 71.285156 136.359375 72.417969 135.042969 73.476562 C 133.730469 74.53125 132.027344 75.097656 128.621094 75.804688 C 127.542969 76.027344 126.921875 76.273438 126.515625 76.472656 C 126.648438 76.582031 126.636719 76.609375 126.835938 76.71875 C 127.332031 76.996094 127.972656 77.238281 128.492188 77.375 C 129.953125 77.746094 132.359375 78.175781 134.867188 77.746094 C 137.378906 77.308594 139.988281 76.09375 142.214844 72.929688 C 142.597656 72.386719 142.640625 71.578125 142.324219 70.714844 C 142.011719 69.847656 141.304688 69.101562 140.816406 68.894531 Z M 140.816406 68.894531 " fill-opacity="1" fill-rule="nonzero"/><path fill="#0ea5e9" d="M 159.503906 6.953125 L 159.242188 7.003906 C 159.328125 6.984375 159.425781 6.976562 159.515625 6.957031 C 159.507812 6.957031 159.507812 6.953125 159.503906 6.953125 Z M 159.503906 6.953125 " fill-opacity="1" fill-rule="nonzero"/><path fill="#0ea5e9" d="M 172.378906 31.933594 C 169.273438 31.976562 167.535156 32.785156 166.617188 33.847656 C 165.320312 35.351562 165.203125 37.988281 166.007812 41.238281 C 166.808594 44.492188 168.460938 48.128906 170.015625 51.152344 C 170.792969 52.664062 171.546875 54.023438 172.152344 55.132812 C 172.765625 56.242188 173.214844 57.027344 173.484375 57.699219 C 173.734375 58.320312 174.019531 58.867188 174.300781 59.375 C 175.503906 56.804688 175.71875 54.285156 175.597656 51.65625 C 175.4375 48.402344 174.691406 45.074219 174.800781 41.703125 C 174.925781 37.765625 175.695312 35.203125 175.757812 32.15625 C 174.746094 32.019531 173.570312 31.933594 172.378906 31.933594 Z M 172.953125 34.277344 L 172.949219 34.3125 C 172.949219 34.328125 172.949219 34.339844 172.949219 34.359375 C 172.949219 34.574219 172.890625 34.777344 172.78125 34.941406 L 172.789062 34.9375 C 172.644531 35.203125 172.476562 35.433594 172.28125 35.632812 C 171.828125 36.136719 171.222656 36.488281 170.539062 36.609375 L 170.519531 36.613281 C 170.421875 36.628906 170.3125 36.632812 170.195312 36.632812 C 169.613281 36.632812 169.074219 36.445312 168.636719 36.132812 L 168.644531 36.136719 C 168.417969 35.980469 168.21875 35.800781 168.058594 35.59375 L 168.050781 35.589844 C 167.910156 35.433594 167.808594 35.230469 167.765625 35.011719 L 167.765625 35.003906 C 167.765625 34.980469 167.761719 34.957031 167.761719 34.933594 C 167.761719 34.734375 167.835938 34.550781 167.960938 34.410156 C 168.109375 34.238281 168.285156 34.101562 168.488281 34 L 168.496094 33.992188 C 168.9375 33.742188 169.527344 33.558594 170.199219 33.457031 C 170.449219 33.421875 170.699219 33.402344 170.929688 33.398438 L 170.929688 33.410156 L 171.160156 33.410156 C 171.460938 33.421875 171.738281 33.453125 171.980469 33.511719 C 172.226562 33.566406 172.441406 33.652344 172.613281 33.765625 C 172.78125 33.882812 172.914062 34.058594 172.953125 34.277344 Z M 172.953125 34.277344 " fill-opacity="1" fill-rule="nonzero"/><path fill="#0ea5e9" d="M 121.445312 52.332031 C 121.445312 51.496094 121.511719 50.683594 121.632812 49.882812 L 121.621094 49.96875 C 122.09375 46.550781 122.160156 43.351562 122.105469 40.824219 C 122.046875 38.363281 121.871094 36.726562 121.871094 35.703125 C 121.871094 35.6875 121.871094 35.675781 121.871094 35.660156 C 121.871094 35.644531 121.871094 35.628906 121.871094 35.613281 L 121.871094 35.589844 L 121.867188 35.5625 L 121.867188 35.558594 C 121.867188 35.550781 121.867188 35.542969 121.867188 35.535156 C 121.867188 30.054688 122.832031 24.800781 124.574219 19.929688 C 125.859375 16.484375 127.765625 12.992188 130.621094 10.160156 C 127.8125 9.222656 122.832031 7.796875 117.433594 7.53125 C 116.914062 7.503906 116.308594 7.484375 115.703125 7.484375 L 115.699219 7.484375 L 115.699219 7.488281 C 115.121094 7.488281 114.535156 7.507812 113.964844 7.539062 C 109.34375 7.808594 104.976562 9.164062 101.855469 12.515625 C 98.726562 15.867188 96.667969 21.359375 97.117188 30.453125 C 97.203125 32.175781 97.945312 36.996094 99.214844 42.726562 C 100.484375 48.457031 102.277344 55.199219 104.433594 61.15625 C 106.59375 67.113281 109.214844 72.296875 111.703125 74.75 C 112.957031 75.976562 114.046875 76.472656 115.03125 76.429688 C 116.023438 76.382812 117.214844 75.804688 118.675781 74.03125 C 121.539062 70.542969 124.246094 67.457031 127.042969 64.457031 L 126.949219 64.554688 C 123.570312 61.570312 121.445312 57.203125 121.445312 52.332031 Z M 121.445312 52.332031 " fill-opacity="1" fill-rule="nonzero"/><path fill="#0ea5e9" d="M 146.0625 7.257812 L 146.0625 7.246094 C 140.660156 7.261719 136.785156 8.914062 133.839844 11.390625 C 130.808594 13.949219 128.777344 17.453125 127.441406 21.039062 C 125.851562 25.296875 125.3125 29.417969 125.09375 32.210938 L 125.152344 32.175781 C 126.789062 31.25 128.929688 30.324219 131.226562 29.785156 C 133.523438 29.25 135.992188 29.089844 138.234375 29.96875 C 140.472656 30.847656 142.324219 32.914062 142.996094 36.054688 C 146.210938 51.128906 141.996094 56.730469 140.441406 60.960938 C 139.945312 62.179688 139.433594 63.742188 139 65.339844 L 138.925781 65.652344 C 139.121094 65.605469 139.320312 65.550781 139.515625 65.53125 C 140.613281 65.4375 141.472656 65.808594 141.980469 66.03125 C 143.546875 66.6875 144.621094 68.066406 145.199219 69.640625 C 145.351562 70.050781 145.457031 70.496094 145.523438 70.953125 C 145.582031 71.113281 145.617188 71.296875 145.617188 71.488281 C 145.617188 71.503906 145.617188 71.523438 145.617188 71.542969 C 145.542969 73.855469 145.496094 76.574219 145.496094 79.304688 C 145.496094 82.539062 145.558594 85.761719 145.679688 88.96875 C 145.785156 91.402344 145.9375 93.558594 146.128906 95.257812 C 146.328125 96.988281 146.605469 98.296875 146.78125 98.742188 C 147.363281 100.222656 148.222656 102.164062 149.765625 103.480469 C 151.3125 104.796875 153.53125 105.675781 157.578125 104.796875 C 161.09375 104.03125 163.257812 102.972656 164.707031 101.449219 C 166.15625 99.925781 167.015625 97.808594 167.566406 94.5625 C 168.394531 89.703125 170.058594 75.609375 170.261719 72.957031 C 170.167969 70.960938 170.460938 69.421875 171.09375 68.25 C 171.742188 67.046875 172.75 66.3125 173.617188 65.914062 C 174.050781 65.714844 174.457031 65.582031 174.792969 65.484375 C 174.382812 64.898438 174.019531 64.40625 173.640625 63.929688 L 173.679688 63.980469 C 172.480469 62.519531 171.460938 60.835938 170.6875 59.027344 L 170.636719 58.894531 C 170.167969 57.925781 169.773438 57.195312 169.363281 56.476562 L 169.460938 56.660156 C 168.851562 55.546875 168.085938 54.160156 167.28125 52.597656 C 165.667969 49.476562 163.917969 45.691406 163.007812 42 C 162.101562 38.316406 161.972656 34.503906 164.292969 31.8125 C 166.347656 29.425781 169.964844 28.4375 175.382812 28.992188 C 175.226562 28.503906 175.128906 28.101562 174.855469 27.453125 C 173.539062 24.355469 171.949219 21.679688 170.066406 19.253906 C 165.46875 13.320312 158.042969 7.445312 146.574219 7.257812 Z M 146.0625 7.257812 " fill-opacity="1" fill-rule="nonzero"/><path fill="#0ea5e9" d="M 125.027344 35.960938 L 125.039062 35.957031 L 125.050781 35.941406 Z M 125.027344 35.960938 " fill-opacity="1" fill-rule="nonzero"/><path fill="#0ea5e9" d="M 131.832031 32.828125 L 131.878906 32.824219 L 131.914062 32.808594 Z M 131.832031 32.828125 " fill-opacity="1" fill-rule="nonzero"/><path fill="#0ea5e9" d="M 137.566406 59.875 C 139.421875 54.8125 143.074219 51.117188 140 36.707031 C 139.496094 34.347656 138.5 33.390625 137.132812 32.855469 C 136.464844 32.609375 135.691406 32.464844 134.882812 32.464844 C 134.832031 32.464844 134.777344 32.464844 134.726562 32.464844 L 134.734375 32.464844 C 133.75 32.476562 132.796875 32.601562 131.878906 32.824219 C 129.933594 33.3125 128.222656 34.007812 126.628906 34.898438 C 126.035156 35.226562 125.519531 35.566406 125.039062 35.953125 L 124.949219 36.035156 C 124.976562 36.710938 125.109375 38.347656 125.164062 40.761719 C 125.21875 43.398438 125.152344 46.761719 124.648438 50.40625 C 123.558594 58.320312 129.230469 64.875 135.894531 64.882812 C 136.289062 63.257812 136.929688 61.609375 137.566406 59.875 Z M 133.628906 36.878906 C 133.410156 36.65625 133.234375 36.40625 133.089844 36.132812 L 133.082031 36.113281 C 132.960938 35.917969 132.890625 35.683594 132.890625 35.429688 C 132.890625 35.382812 132.898438 35.335938 132.902344 35.289062 L 132.902344 35.292969 C 132.972656 34.792969 133.378906 34.535156 133.773438 34.390625 C 134.136719 34.273438 134.542969 34.203125 134.980469 34.203125 C 135.042969 34.203125 135.109375 34.203125 135.183594 34.207031 L 135.179688 34.1875 C 135.417969 34.1875 135.679688 34.210938 135.9375 34.25 C 136.636719 34.347656 137.261719 34.535156 137.734375 34.8125 C 137.96875 34.941406 138.171875 35.105469 138.335938 35.300781 L 138.339844 35.304688 C 138.496094 35.484375 138.589844 35.71875 138.589844 35.984375 C 138.589844 36.019531 138.589844 36.058594 138.585938 36.09375 L 138.585938 36.089844 C 138.539062 36.367188 138.414062 36.609375 138.242188 36.804688 C 138.054688 37.035156 137.839844 37.234375 137.597656 37.402344 L 137.589844 37.40625 C 137.121094 37.746094 136.535156 37.949219 135.902344 37.949219 C 135.777344 37.949219 135.652344 37.941406 135.53125 37.929688 L 135.542969 37.929688 C 134.777344 37.796875 134.117188 37.417969 133.628906 36.878906 Z M 133.628906 36.878906 " fill-opacity="1" fill-rule="nonzero"/><path fill="#0ea5e9" d="M 126.539062 34.941406 C 126.570312 34.925781 126.601562 34.914062 126.628906 34.898438 C 126.636719 34.898438 126.640625 34.890625 126.644531 34.886719 Z M 126.539062 34.941406 " fill-opacity="1" fill-rule="nonzero"/><path fill="#0ea5e9" d="M 172.53125 17.363281 C 174.535156 19.933594 176.273438 22.859375 177.609375 25.996094 L 177.707031 26.25 C 178.210938 27.472656 178.550781 28.503906 178.738281 29.304688 C 178.835938 29.707031 178.902344 30.046875 178.925781 30.398438 C 178.933594 30.574219 178.941406 30.753906 178.867188 31.0625 C 178.867188 31.078125 178.84375 31.109375 178.839844 31.125 C 178.980469 35.179688 177.984375 37.929688 177.867188 41.796875 C 177.777344 44.601562 178.484375 47.898438 178.660156 51.492188 C 178.828125 54.871094 178.425781 58.582031 176.253906 62.226562 C 176.4375 62.449219 176.601562 62.671875 176.777344 62.890625 C 182.511719 53.75 186.644531 43.640625 188.847656 35.015625 C 190.027344 30.375 190.652344 26.167969 190.707031 22.835938 C 190.753906 19.503906 190.136719 17.085938 189.359375 16.078125 C 183.222656 8.136719 174.925781 6.113281 167.964844 6.058594 L 167.964844 6.0625 L 167.296875 6.0625 C 164.613281 6.105469 162.023438 6.414062 159.519531 6.957031 C 165.203125 9.511719 169.507812 13.445312 172.53125 17.363281 Z M 172.53125 17.363281 " fill-opacity="1" fill-rule="nonzero"/><g clip-path="url(#6f4c4adc76)"><path fill="#0f0f0f" d="M 146.828125 1.195312 L 146.78125 1.195312 C 141.394531 1.101562 136.769531 2.425781 133.035156 4.628906 C 129.359375 3.335938 121.738281 1.109375 113.699219 1.554688 C 108.105469 1.863281 101.996094 3.585938 97.46875 8.421875 C 92.957031 13.257812 90.570312 20.742188 91.070312 30.925781 C 91.210938 33.734375 92.003906 38.316406 93.3125 44.25 C 94.625 50.183594 96.46875 57.128906 98.769531 63.464844 C 101.070312 69.808594 103.585938 75.5 107.523438 79.367188 C 109.492188 81.308594 112.199219 82.9375 115.386719 82.804688 C 117.628906 82.710938 119.652344 81.714844 121.402344 80.25 C 122.253906 81.382812 123.160156 81.878906 123.988281 82.335938 C 125.027344 82.914062 126.042969 83.308594 127.09375 83.566406 C 128.980469 84.042969 132.210938 84.683594 135.996094 84.03125 C 137.289062 83.8125 138.644531 83.386719 139.996094 82.78125 C 140.046875 84.308594 140.109375 85.800781 140.164062 87.316406 C 140.351562 92.109375 140.46875 96.539062 141.890625 100.421875 C 142.117188 101.054688 142.746094 104.324219 145.210938 107.207031 C 147.679688 110.09375 152.519531 111.894531 158.027344 110.703125 C 161.914062 109.859375 166.855469 108.339844 170.140625 103.609375 C 173.382812 98.9375 174.847656 92.230469 175.136719 81.355469 C 175.210938 80.765625 175.300781 80.265625 175.386719 79.800781 L 176.160156 79.867188 L 176.253906 79.867188 C 180.402344 80.058594 184.898438 79.460938 188.65625 77.695312 C 191.984375 76.132812 194.503906 74.554688 196.339844 71.753906 C 196.796875 71.0625 197.296875 70.222656 197.4375 68.78125 C 197.574219 67.335938 196.757812 65.078125 195.394531 64.035156 C 192.675781 61.945312 190.96875 62.738281 189.132812 63.125 C 187.5 63.507812 185.613281 63.75 183.675781 63.800781 L 183.640625 63.800781 C 188.925781 54.789062 192.714844 45.21875 194.878906 36.746094 C 196.160156 31.75 196.878906 27.140625 196.933594 23.109375 C 196.992188 19.078125 196.667969 15.507812 194.28125 12.421875 C 186.824219 2.777344 176.34375 0.109375 168.230469 0.0195312 C 167.980469 0.015625 167.722656 0.0078125 167.472656 0.015625 L 167.472656 0 C 163.058594 0.0351562 158.808594 0.703125 154.789062 1.894531 L 154.597656 1.957031 C 152.273438 1.523438 149.578125 1.246094 146.828125 1.195312 Z M 157.792969 4.140625 C 160.625 3.445312 163.882812 3.023438 167.234375 2.980469 L 167.261719 2.980469 L 167.265625 2.960938 C 174.941406 2.886719 184.738281 5.066406 191.777344 14.171875 C 193.359375 16.21875 193.832031 19.207031 193.777344 22.890625 C 193.714844 26.570312 193.046875 30.976562 191.8125 35.804688 C 189.425781 45.152344 184.917969 56.050781 178.566406 65.832031 C 178.777344 65.984375 179.015625 66.117188 179.265625 66.21875 L 179.289062 66.230469 C 180.613281 66.785156 183.636719 67.261719 189.667969 66.007812 C 191.183594 65.683594 192.296875 65.464844 193.449219 66.355469 C 193.964844 66.796875 194.289062 67.457031 194.289062 68.191406 C 194.289062 68.238281 194.289062 68.285156 194.285156 68.332031 L 194.285156 68.324219 C 194.214844 68.914062 194.007812 69.441406 193.6875 69.882812 C 192.523438 71.652344 190.222656 73.332031 187.277344 74.71875 C 184.667969 75.949219 180.921875 76.59375 177.605469 76.628906 C 175.9375 76.648438 174.40625 76.519531 173.101562 76.105469 L 173.019531 76.074219 C 172.515625 80.980469 171.355469 90.667969 170.601562 95.085938 C 170 98.648438 168.945312 101.480469 166.929688 103.601562 C 164.914062 105.722656 162.070312 107 158.234375 107.832031 C 153.492188 108.863281 150.03125 107.753906 147.800781 105.851562 C 145.574219 103.953125 144.554688 101.4375 143.941406 99.894531 C 143.519531 98.832031 143.300781 97.449219 143.089844 95.609375 C 142.875 93.765625 142.722656 91.511719 142.617188 88.972656 C 142.515625 86.390625 142.457031 83.355469 142.457031 80.304688 C 142.457031 79.300781 142.46875 78.300781 142.476562 77.296875 C 140.566406 79.074219 138.148438 80.320312 135.464844 80.800781 L 135.382812 80.8125 C 132.230469 81.355469 129.421875 80.820312 127.742188 80.394531 C 126.847656 80.167969 126.070312 79.851562 125.339844 79.453125 C 124.570312 79.035156 123.839844 78.558594 123.347656 77.628906 C 123.15625 77.273438 123.039062 76.84375 123.039062 76.386719 C 123.039062 76.207031 123.058594 76.027344 123.09375 75.859375 C 123.261719 75.242188 123.609375 74.710938 124.085938 74.34375 L 124.089844 74.339844 C 124.996094 73.59375 126.191406 73.175781 128 72.796875 C 131.285156 72.113281 132.433594 71.644531 133.132812 71.085938 C 133.726562 70.601562 134.402344 69.632812 135.585938 68.207031 C 135.582031 68.164062 135.578125 68.09375 135.570312 68.03125 L 135.570312 68.015625 C 133.332031 67.949219 131.246094 67.34375 129.421875 66.320312 L 129.492188 66.359375 C 128.804688 67.089844 125.300781 70.839844 121.035156 76.042969 C 119.238281 78.214844 117.253906 79.464844 115.160156 79.554688 C 113.070312 79.640625 111.175781 78.578125 109.566406 77 C 106.351562 73.839844 103.785156 68.398438 101.550781 62.253906 C 99.320312 56.109375 97.503906 49.261719 96.214844 43.429688 C 94.917969 37.597656 94.160156 32.898438 94.046875 30.628906 C 93.566406 20.992188 95.792969 14.5 99.609375 10.402344 C 103.433594 6.308594 108.671875 4.757812 113.777344 4.460938 C 122.945312 3.929688 131.648438 7.164062 133.410156 7.859375 C 136.808594 5.527344 141.179688 4.074219 146.636719 4.164062 C 149.386719 4.207031 152.03125 4.574219 154.558594 5.226562 L 154.324219 5.175781 L 154.417969 5.132812 C 155.300781 4.800781 156.429688 4.460938 157.589844 4.183594 Z M 157.792969 4.140625 " fill-opacity="1" fill-rule="nonzero"/></g><g clip-path="url(#cdcbd4fc0b)"><g clip-path="url(#2c938ab7ff)"><path fill="#0ea5e9" d="M 149.675781 41.738281 L 159.753906 41.738281 L 159.753906 66.152344 L 149.675781 66.152344 Z M 149.675781 41.738281 " fill-opacity="1" fill-rule="nonzero"/></g></g></svg>