<svg width="188" height="141" viewBox="0 0 188 141" fill="none" xmlns="http://www.w3.org/2000/svg"> <g clip-path="url(#clip0_20_348)"> <path d="M161.783 81.0016C155.21 81.0387 149.519 82.6172 144.745 84.9676C142.983 81.4793 141.22 78.4313 140.927 76.1551C140.596 73.5113 140.193 71.8953 140.596 68.7379C141 65.5797 142.836 61.1 142.836 60.7328C142.799 60.4024 142.432 58.7867 138.65 58.75C134.868 58.7133 131.6 59.4844 131.233 60.4758C130.866 61.4672 130.131 63.7438 129.654 66.0938C128.993 69.5453 122.09 81.7727 118.161 88.1985C116.876 85.7016 115.774 83.4985 115.554 81.7356C115.223 79.0922 114.819 77.4762 115.223 74.3188C115.627 71.1606 117.463 66.6813 117.463 66.3141C117.427 65.9836 117.059 64.368 113.278 64.3313C109.495 64.2946 106.228 65.0657 105.861 66.0571C105.493 67.0485 105.089 69.3985 104.282 71.675C103.51 73.9516 94.3305 94.3672 91.9437 99.6914C90.732 102.409 89.6675 104.575 88.8961 106.044C88.125 107.513 88.8594 106.154 88.7859 106.301C88.125 107.549 87.7578 108.247 87.7578 108.247V108.284C87.2437 109.202 86.693 110.083 86.4356 110.083C86.252 110.083 85.8848 107.623 86.509 104.245C87.8676 97.1578 91.1723 86.1059 91.1359 85.702C91.1359 85.5184 91.7598 83.5719 89.0059 82.5809C86.3254 81.5895 85.3711 83.2418 85.1504 83.2418C84.9301 83.2418 84.7465 83.8293 84.7465 83.8293C84.7465 83.8293 87.7207 71.382 79.0551 71.382C73.6207 71.382 66.1301 77.2937 62.4215 82.6914C60.0715 83.9765 55.0777 86.6934 49.7902 89.5945C47.7707 90.6961 45.6777 91.8711 43.6949 92.9359L43.2914 92.4946C32.7898 81.2953 13.3656 73.3641 14.1734 58.3094C14.4672 52.8383 16.3766 38.4078 51.48 20.9297C80.2308 6.60941 103.253 10.5383 107.255 19.2774C112.947 31.7617 94.9547 54.968 65.066 58.3094C53.6832 59.5946 47.6976 55.1883 46.1925 53.536C44.6136 51.8102 44.3933 51.7367 43.8058 52.0672C42.8511 52.5813 43.4386 54.1235 43.8058 55.0414C44.6871 57.3547 48.359 61.4672 54.6011 63.5235C60.0719 65.3227 73.4379 66.3141 89.5941 60.0719C107.696 53.0586 121.833 33.5977 117.684 17.3313C113.461 0.771125 85.9957 -4.66325 60.0355 4.55315C44.5766 10.061 27.8328 18.6532 15.7891 29.9258C1.46874 43.2914 -0.807822 54.968 0.146865 59.8149C3.48864 77.1094 27.3187 88.3821 36.8656 96.7172C36.3883 96.9739 35.9476 97.2309 35.5437 97.4516C30.7703 99.8012 12.5945 109.312 8.0414 119.372C2.90077 130.755 8.84921 138.944 12.8148 140.045C25.0789 143.46 37.6367 137.328 44.4297 127.23C51.1856 117.133 50.3781 104.024 47.257 98.0391L47.1465 97.8188L50.8918 95.6157C53.3156 94.1836 55.7023 92.8617 57.7949 91.7231C56.6203 94.9176 55.7754 98.6997 55.3351 104.207C54.8211 110.67 57.4648 119.042 60.9531 122.347C62.4953 123.778 64.3312 123.815 65.4695 123.815C69.5086 123.815 71.3445 120.474 73.3641 116.472C75.8609 111.588 78.0641 105.933 78.0641 105.933C78.0641 105.933 75.3102 121.245 82.8375 121.245C85.5914 121.245 88.3453 117.683 89.5937 115.847V115.884C89.5937 115.884 89.6672 115.774 89.8141 115.517C89.9681 115.289 90.1151 115.057 90.2547 114.82V114.746C91.3562 112.837 93.8164 108.467 97.4883 101.234C102.225 91.9071 106.778 80.2305 106.778 80.2305C106.778 80.2305 107.219 83.0946 108.577 87.7946C109.385 90.5856 111.147 93.6329 112.506 96.6071C111.404 98.1493 110.743 99.0309 110.743 99.0309L110.78 99.0676C109.899 100.243 108.907 101.491 107.88 102.739C104.134 107.219 99.6547 112.323 99.0672 113.792C98.3695 115.518 98.5164 116.803 99.875 117.831C100.866 118.566 102.629 118.712 104.502 118.566C107.88 118.345 110.23 117.501 111.405 116.986C113.241 116.325 115.334 115.334 117.353 113.865C121.025 111.148 123.265 107.293 123.045 102.152C122.934 99.325 122.016 96.5344 120.878 93.8906C121.209 93.4133 121.539 92.9355 121.87 92.4219C127.671 83.9395 132.151 74.6133 132.151 74.6133C132.151 74.6133 132.591 77.4773 133.95 82.1773C134.647 84.564 136.043 87.1714 137.291 89.7418C131.857 94.1847 128.442 99.3254 127.267 102.703C125.101 108.946 126.79 111.773 129.984 112.434C131.416 112.728 133.473 112.067 135.014 111.406C136.924 110.782 139.237 109.716 141.367 108.138C145.039 105.421 148.564 101.639 148.38 96.5347C148.27 94.1847 147.646 91.8714 146.802 89.6683C151.428 87.7589 157.413 86.6574 165.014 87.5753C181.354 89.4847 184.585 99.6925 183.961 103.952C183.337 108.212 179.922 110.561 178.784 111.296C177.645 111.993 177.278 112.251 177.388 112.764C177.535 113.536 178.049 113.499 179.041 113.352C180.399 113.132 187.633 109.864 187.927 102.007C188.367 91.9074 178.784 80.8918 161.783 81.0016ZM35.7641 123.485C30.3664 129.397 22.7656 131.637 19.5344 129.727C16.0461 127.708 17.4043 119.006 24.0508 112.727C28.0898 108.908 33.3406 105.383 36.7922 103.216C37.5633 102.739 38.7383 102.042 40.1336 101.197C40.3539 101.05 40.5008 100.977 40.5008 100.977C40.7578 100.83 41.0516 100.646 41.3453 100.463C43.8055 109.422 41.4555 117.28 35.7641 123.485ZM75.2367 96.6438C73.3641 101.234 69.3984 113.02 67.0117 112.359C64.9551 111.809 63.707 102.886 66.6074 94.0735C68.0762 89.6301 71.1973 84.343 73.0332 82.2864C76.0078 78.9817 79.2387 77.8801 80.0469 79.2387C81.0015 81.0016 76.4117 93.7797 75.2367 96.6438ZM107.806 112.213C106.998 112.617 106.264 112.91 105.934 112.69C105.677 112.543 106.264 111.993 106.264 111.993C106.264 111.993 110.339 107.623 111.955 105.604C112.873 104.429 113.975 103.07 115.15 101.528V101.968C115.15 107.256 110.083 110.781 107.806 112.213ZM132.921 106.484C132.334 106.044 132.408 104.685 134.39 100.426C135.162 98.7368 136.924 95.9094 139.971 93.2289C140.339 94.3305 140.559 95.395 140.522 96.3867C140.486 102.996 135.786 105.456 132.921 106.484Z" fill="#0EA5E9"></path> </g> <defs> <clipPath id="clip0_20_348"> <rect width="188" height="141" fill="white"></rect> </clipPath> </defs> </svg>