<svg width="257" height="107" viewBox="0 0 257 107" fill="none" xmlns="http://www.w3.org/2000/svg"> <g clip-path="url(#clip0_31_418)"> <path d="M173.355 -2.54248L172.553 1.63797C171.313 9.5605 171.762 11.8271 175.162 14.7673L178.444 17.483L175.044 32.6439C173.013 41.689 170.522 49.2694 168.939 51.7606C167.581 53.9096 165.999 57.0743 165.657 58.7743C165.09 60.8057 163.166 62.8478 160.226 64.6547C157.627 66.1302 152.528 70.0861 148.914 73.2616C146.027 75.8596 144.038 77.4527 142.959 78.137L139.43 80.9275C138.297 82.7451 137.655 84.2098 137.41 85.3218C137.164 86.4658 137.303 87.2249 137.666 87.7809C138.019 88.3154 138.628 88.6897 139.462 88.9249C140.45 89.1562 141.466 89.2391 142.477 89.1708C144.766 89.0144 147.031 88.613 149.235 87.9733C149.983 87.7702 150.571 87.5777 151.084 87.4066C151.875 86.4337 153.704 84.5947 156.943 81.3979C165.539 72.9194 168.822 68.2792 165.432 69.5302C164.181 69.9792 164.748 68.8459 166.897 66.5793C171.43 62.1636 174.029 55.492 179.46 34.5683C183.758 18.0497 183.758 17.8145 186.923 17.8145C188.409 17.8145 192.611 18.0711 192.611 18.0711V-2.54248H182.967H173.355ZM214.4 31.2967C213.716 31.2967 212.583 32.3231 211.909 33.4564C210.669 35.4878 212.134 36.7281 230.801 48.382C241.889 55.4064 250.827 61.3938 250.602 61.8535C250.378 62.185 241.322 68.0761 230.47 74.8653C210.776 87.0752 210.669 87.1928 212.476 89.684C214.742 92.6242 212.476 93.6399 238.04 77.6879L256.6 65.8094V56.8712L235.891 44.084C224.696 37.0702 214.967 31.4143 214.4 31.2967ZM42.4246 32.5476C41.8579 32.5476 32.1285 38.3211 20.9343 45.2173L0 58.0045V66.9428L20.8167 79.9545C32.3637 87.0752 42.0932 92.9663 42.5422 92.9663C42.9913 92.9663 43.9001 91.9399 44.8088 90.6997C46.1667 88.5507 45.0227 87.6419 25.906 75.5389C7.69801 64.1095 5.77351 62.5271 7.5911 61.2869C8.72441 60.4957 17.3205 55.1712 26.6009 49.4084C47.7598 36.3966 46.6264 37.2947 44.9265 34.579C44.2529 33.4564 43.1089 32.4407 42.4353 32.5476H42.4246ZM135.271 32.7935C132.149 32.7722 125.435 37.5299 105.334 53.9417C104.468 56.0052 104.394 57.4272 104.789 58.3466C105.046 58.9775 105.516 59.4158 106.168 59.7366C106.81 60.0573 107.644 60.2498 108.563 60.3246C110.392 60.485 112.551 60.1963 114.294 59.8542L115.47 59.5869C115.873 59.047 116.401 58.6139 117.01 58.3253C118.25 57.641 123.457 52.8939 128.664 47.8046C137.826 38.5243 139.976 34.3331 136.244 32.9753C135.938 32.8535 135.611 32.7918 135.282 32.7935H135.271ZM158.75 39.2406C156.002 39.3155 151.052 42.5016 142.574 49.2694C138.318 52.7228 135.624 54.5832 134.181 54.9681L128.578 59.3944C126.472 63.2434 126.162 65.6277 126.718 66.9428C126.857 67.2672 127.059 67.5608 127.312 67.8067C127.565 68.0526 127.865 68.2459 128.193 68.3755C129.01 68.698 129.881 68.8613 130.759 68.8566C132.858 68.8342 134.944 68.5285 136.96 67.9478C138.012 67.6657 139.05 67.3375 140.072 66.9641L140.382 66.8359L140.948 66.5365C142.018 65.1572 144.477 62.5592 147.556 59.5655C157.285 50.1782 162.257 43.5066 161.241 41.0154C160.782 39.8073 159.99 39.1978 158.75 39.2406ZM132.833 50.7876C132.042 50.8732 130.267 52.2417 127.071 55.0429C122.452 59.1271 117.416 61.4793 115.673 60.4315C115.268 60.523 114.862 60.6086 114.454 60.6881C112.68 61.041 110.466 61.3296 108.489 61.1693C107.557 61.1128 106.643 60.8844 105.794 60.4957C104.994 60.1296 104.355 59.4831 103.998 58.6781C103.602 57.7158 103.602 56.5184 104.051 54.9895L97.1019 60.6988L81.3744 73.7106V94.8053L132.908 54.209C132.898 53.7645 132.956 53.321 133.079 52.8939C133.475 51.4612 133.454 50.7342 132.833 50.7983V50.7876ZM155.008 57.6196C154.228 57.6196 152.923 58.7209 150.838 60.934C148.005 63.9598 143.547 66.8893 141.184 67.488L140.82 67.6805C140.432 67.8407 140.04 67.9904 139.644 68.1295C139.003 68.3434 138.169 68.6 137.206 68.8566C135.282 69.3805 132.887 69.8616 130.749 69.8081C129.74 69.8068 128.742 69.6108 127.808 69.2308C126.928 68.868 126.223 68.1782 125.841 67.3063C125.221 65.8201 125.467 63.7353 126.825 60.7737L81.3637 96.5801V109.464H101.336L143.696 76.1911C144.797 74.9722 146.455 73.3043 148.689 71.2194C154.677 65.6705 156.034 63.7566 156.034 60.9233C156.034 58.7209 155.789 57.6089 155.008 57.6089V57.6196ZM165.09 78.4684L161.466 82.0822C159.434 84.0067 155.81 86.3802 153.329 87.396L152.838 87.6098L152.806 87.6633L152.699 87.7702C152.602 87.845 152.56 87.8557 152.485 87.8878C151.495 88.2626 150.489 88.5943 149.47 88.8821C147.204 89.5415 144.874 89.9538 142.52 90.1116C141.407 90.183 140.29 90.0857 139.206 89.823C138.265 89.6159 137.435 89.0673 136.875 88.2834C136.362 87.4922 136.212 86.4337 136.501 85.1293C136.73 84.2007 137.071 83.3032 137.516 82.4564L103.335 109.464H148.796L154.228 103.241C161.69 94.538 165.09 88.3154 165.09 82.991V78.4684Z" fill="#0EA5E9"></path> </g> <defs> <clipPath id="clip0_31_418"> <rect width="256.6" height="106.917" fill="white"></rect> </clipPath> </defs> </svg>