<svg xmlns="http://www.w3.org/2000/svg" xmlns:xlink="http://www.w3.org/1999/xlink" width="384" zoomAndPan="magnify" viewBox="0 0 288 112.499997" height="150" preserveAspectRatio="xMidYMid meet" version="1.0"><defs><clipPath id="ce2304d7b1"><path d="M 88.984375 22.921875 L 198.746094 22.921875 L 198.746094 89 L 88.984375 89 Z M 88.984375 22.921875 " clip-rule="nonzero"/></clipPath><clipPath id="a6984059ff"><path d="M 113.863281 69.109375 L 138.128906 69.109375 L 138.128906 86.214844 L 113.863281 86.214844 Z M 113.863281 69.109375 " clip-rule="nonzero"/></clipPath><clipPath id="78a43f883f"><path d="M 115.328125 69.144531 C 122.273438 73.546875 125.558594 76.984375 128.617188 79.074219 C 131.605469 81.164062 137.128906 82.957031 137.878906 84.449219 C 138.175781 84.972656 138.027344 85.867188 137.800781 85.941406 C 137.578125 86.09375 136.382812 85.195312 136.382812 84.972656 C 136.457031 84.75 137.878906 84.375 138.027344 84.597656 C 138.175781 84.75 137.800781 85.867188 137.28125 86.09375 C 136.457031 86.390625 134.816406 85.121094 132.875 84 C 128.691406 81.613281 115.625 73.175781 114.207031 70.785156 C 113.835938 70.261719 113.835938 69.738281 113.984375 69.515625 C 114.207031 69.21875 115.328125 69.144531 115.328125 69.144531 " clip-rule="nonzero"/></clipPath><clipPath id="c0900a9d4e"><path d="M 156.15625 33.734375 L 158.507812 33.734375 L 158.507812 36.449219 L 156.15625 36.449219 Z M 156.15625 33.734375 " clip-rule="nonzero"/></clipPath><clipPath id="4bddc29825"><path d="M 158.484375 35.316406 C 156.917969 36.363281 156.171875 35.09375 156.320312 34.796875 C 156.46875 34.496094 157.886719 34.273438 158.1875 34.496094 C 158.410156 34.796875 158.113281 36.140625 157.738281 36.363281 C 157.515625 36.511719 156.992188 36.4375 156.695312 36.214844 C 156.394531 35.988281 156.097656 35.394531 156.171875 35.019531 C 156.246094 34.570312 156.769531 33.824219 157.140625 33.75 C 157.515625 33.675781 158.484375 34.570312 158.484375 34.570312 " clip-rule="nonzero"/></clipPath></defs><g clip-path="url(#ce2304d7b1)"><path fill="#0ea5e9" d="M 144 22.972656 C 129.3125 22.972656 120.179688 30.289062 116.492188 44.980469 C 121.992188 37.660156 128.429688 34.910156 135.75 36.726562 C 139.929688 37.769531 142.957031 40.796875 146.257812 44.152344 C 151.648438 49.65625 157.757812 55.984375 171.511719 55.984375 C 186.203125 55.984375 195.335938 48.664062 199.023438 33.976562 C 193.519531 41.292969 187.082031 44.042969 179.765625 42.226562 C 175.582031 41.183594 172.613281 38.15625 169.253906 34.800781 C 163.863281 29.296875 157.757812 22.972656 144 22.972656 Z M 116.492188 55.984375 C 101.800781 55.984375 92.667969 63.300781 88.980469 77.992188 C 94.484375 70.671875 100.921875 67.921875 108.238281 69.738281 C 112.421875 70.78125 115.390625 73.808594 118.746094 77.164062 C 124.140625 82.667969 130.246094 88.996094 144 88.996094 C 158.691406 88.996094 167.824219 81.675781 171.511719 66.988281 C 166.007812 74.304688 159.570312 77.054688 152.253906 75.238281 C 148.074219 74.195312 145.101562 71.167969 141.746094 67.8125 C 136.355469 62.308594 130.246094 55.984375 116.492188 55.984375 Z M 116.492188 55.984375 " fill-opacity="1" fill-rule="nonzero"/></g><g clip-path="url(#a6984059ff)"><g clip-path="url(#78a43f883f)"><path fill="#0ea5e9" d="M 110.996094 66.15625 L 140.992188 66.15625 L 140.992188 89.078125 L 110.996094 89.078125 Z M 110.996094 66.15625 " fill-opacity="1" fill-rule="nonzero"/></g></g><g clip-path="url(#c0900a9d4e)"><g clip-path="url(#4bddc29825)"><path fill="#0ea5e9" d="M 153.183594 30.761719 L 161.546875 30.761719 L 161.546875 39.421875 L 153.183594 39.421875 Z M 153.183594 30.761719 " fill-opacity="1" fill-rule="nonzero"/></g></g></svg>