<svg width="98" height="98" viewBox="0 0 98 98" fill="none" xmlns="http://www.w3.org/2000/svg"> <g clip-path="url(#clip0_31_454)"> <path d="M0 49V0H98V98H0" fill="#0ea5e9"></path> <path d="M21.4865 49.1717V53.1652H34.2265V89.4252H43.267V53.1652H56.007V49.2452C56.007 47.0402 56.007 45.2517 55.909 45.2027C55.909 45.1292 48.1425 45.1047 38.71 45.1047L21.56 45.1782V49.1962L21.4865 49.1717V49.1717ZM78.743 45.0802C81.242 45.6682 83.153 46.7952 84.868 48.5837C85.7745 49.5637 87.122 51.2787 87.22 51.7197C87.22 51.8667 82.9815 54.7332 80.409 56.3257C80.311 56.3992 79.919 55.9827 79.527 55.3457C78.253 53.5327 76.9545 52.7487 74.921 52.6017C71.981 52.4057 70.021 53.9492 70.021 56.5217C70.021 57.3057 70.168 57.7467 70.462 58.3837C71.1235 59.7312 72.3485 60.5397 76.146 62.2057C83.153 65.2192 86.191 67.2037 88.0285 70.0457C90.111 73.2307 90.5765 78.2287 89.18 81.9772C87.612 86.0687 83.79 88.8372 78.3265 89.7437C76.6115 90.0377 72.6915 89.9887 70.854 89.6702C66.934 88.9352 63.1855 86.9752 60.8825 84.4517C59.976 83.4717 58.2365 80.8502 58.3345 80.6787L59.2655 80.0907L62.9405 77.9592L65.709 76.3422L66.346 77.1997C67.1545 78.4737 68.9675 80.1887 70.021 80.7767C73.206 82.4182 77.469 82.1977 79.576 80.2867C80.4825 79.4537 80.8745 78.5717 80.8745 77.3467C80.8745 76.2197 80.703 75.7052 80.1395 74.8477C79.3555 73.7697 77.7875 72.8877 73.3775 70.9277C68.306 68.7717 66.15 67.3997 64.141 65.2927C62.9895 64.0187 61.936 62.0342 61.446 60.3927C61.0785 58.9717 60.956 55.4927 61.299 54.0962C62.3525 49.1962 66.052 45.7662 71.344 44.7862C73.059 44.4432 77.1015 44.5902 78.792 45.0312L78.743 45.0802V45.0802Z" fill="#0F0F0F"></path> </g> <defs> <clipPath id="clip0_31_454"> <rect width="98" height="98" fill="white"></rect> </clipPath> </defs> </svg>