<svg xmlns="http://www.w3.org/2000/svg" xmlns:xlink="http://www.w3.org/1999/xlink" width="384" zoomAndPan="magnify" viewBox="0 0 288 112.499997" height="150" preserveAspectRatio="xMidYMid meet" version="1.0"><defs><clipPath id="7388c932ec"><path d="M 161 21 L 178 21 L 178 38 L 161 38 Z M 161 21 " clip-rule="nonzero"/></clipPath><clipPath id="80b0a7c49c"><path d="M 158.789062 27.890625 L 168.214844 18.464844 L 181.414062 31.660156 L 171.988281 41.089844 Z M 158.789062 27.890625 " clip-rule="nonzero"/></clipPath><clipPath id="7fd2415b0c"><path d="M 158.789062 27.890625 L 168.214844 18.464844 L 181.414062 31.660156 L 171.988281 41.089844 Z M 158.789062 27.890625 " clip-rule="nonzero"/></clipPath><clipPath id="71c69e41cb"><path d="M 109 73 L 126 73 L 126 90 L 109 90 Z M 109 73 " clip-rule="nonzero"/></clipPath><clipPath id="ba7ee53984"><path d="M 106.507812 80.109375 L 115.9375 70.683594 L 129.132812 83.882812 L 119.707031 93.308594 Z M 106.507812 80.109375 " clip-rule="nonzero"/></clipPath><clipPath id="21e0a3eff0"><path d="M 106.507812 80.109375 L 115.9375 70.683594 L 129.132812 83.882812 L 119.707031 93.308594 Z M 106.507812 80.109375 " clip-rule="nonzero"/></clipPath><clipPath id="46da207146"><path d="M 162 74 L 179 74 L 179 91 L 162 91 Z M 162 74 " clip-rule="nonzero"/></clipPath><clipPath id="22d4f7e449"><path d="M 171.976562 70.921875 L 181.402344 80.351562 L 168.203125 93.550781 L 158.777344 84.121094 Z M 171.976562 70.921875 " clip-rule="nonzero"/></clipPath><clipPath id="7e372e123f"><path d="M 171.976562 70.921875 L 181.402344 80.351562 L 168.203125 93.550781 L 158.777344 84.121094 Z M 171.976562 70.921875 " clip-rule="nonzero"/></clipPath><clipPath id="e14bd53720"><path d="M 109 21 L 126 21 L 126 38 L 109 38 Z M 109 21 " clip-rule="nonzero"/></clipPath><clipPath id="6fe2c93c34"><path d="M 119.644531 18.589844 L 129.070312 28.019531 L 115.871094 41.21875 L 106.445312 31.789062 Z M 119.644531 18.589844 " clip-rule="nonzero"/></clipPath><clipPath id="0b05a2bcef"><path d="M 119.644531 18.589844 L 129.070312 28.019531 L 115.871094 41.21875 L 106.445312 31.789062 Z M 119.644531 18.589844 " clip-rule="nonzero"/></clipPath><clipPath id="041fffe7be"><path d="M 107.136719 45.09375 L 124.46875 45.09375 L 124.46875 66.425781 L 107.136719 66.425781 Z M 107.136719 45.09375 " clip-rule="nonzero"/></clipPath><clipPath id="8cd161f3b6"><path d="M 133.355469 75.65625 L 154.6875 75.65625 L 154.6875 92.988281 L 133.355469 92.988281 Z M 133.355469 75.65625 " clip-rule="nonzero"/></clipPath><clipPath id="95c496687d"><path d="M 133.328125 19.199219 L 154.660156 19.199219 L 154.660156 36.53125 L 133.328125 36.53125 Z M 133.328125 19.199219 " clip-rule="nonzero"/></clipPath><clipPath id="7fe9e47eef"><path d="M 163.53125 45.152344 L 180.863281 45.152344 L 180.863281 66.484375 L 163.53125 66.484375 Z M 163.53125 45.152344 " clip-rule="nonzero"/></clipPath><clipPath id="5e90eec210"><path d="M 133.132812 45.128906 L 154.464844 45.128906 L 154.464844 66.460938 L 133.132812 66.460938 Z M 133.132812 45.128906 " clip-rule="nonzero"/></clipPath></defs><g clip-path="url(#7388c932ec)"><g clip-path="url(#80b0a7c49c)"><g clip-path="url(#7fd2415b0c)"><path fill="#0ea5e9" d="M 174.695312 24.855469 C 175.117188 25.277344 175.507812 25.726562 175.863281 26.203125 C 176.214844 26.679688 176.527344 27.171875 176.800781 27.679688 C 177.070312 28.1875 177.296875 28.707031 177.476562 29.230469 C 177.65625 29.753906 177.785156 30.273438 177.863281 30.792969 C 177.945312 31.308594 177.972656 31.816406 177.949219 32.308594 C 177.925781 32.800781 177.851562 33.269531 177.726562 33.71875 C 177.601562 34.167969 177.429688 34.585938 177.207031 34.972656 C 176.984375 35.359375 176.71875 35.707031 176.410156 36.015625 C 176.101562 36.328125 175.75 36.59375 175.363281 36.816406 C 174.976562 37.035156 174.5625 37.210938 174.113281 37.335938 C 173.664062 37.460938 173.195312 37.535156 172.699219 37.554688 C 172.207031 37.578125 171.703125 37.550781 171.183594 37.472656 C 170.667969 37.390625 170.144531 37.261719 169.621094 37.082031 C 169.097656 36.90625 168.582031 36.679688 168.074219 36.40625 C 167.5625 36.136719 167.070312 35.824219 166.597656 35.46875 C 166.121094 35.113281 165.671875 34.726562 165.25 34.304688 C 164.828125 33.878906 164.4375 33.433594 164.085938 32.957031 C 163.730469 32.480469 163.417969 31.988281 163.144531 31.480469 C 162.875 30.972656 162.648438 30.453125 162.46875 29.929688 C 162.289062 29.40625 162.160156 28.886719 162.082031 28.367188 C 162 27.851562 161.972656 27.34375 161.996094 26.851562 C 162.019531 26.359375 162.09375 25.886719 162.21875 25.441406 C 162.34375 24.992188 162.515625 24.574219 162.738281 24.1875 C 162.960938 23.800781 163.226562 23.453125 163.535156 23.144531 C 163.847656 22.832031 164.195312 22.566406 164.582031 22.34375 C 164.96875 22.125 165.386719 21.949219 165.832031 21.824219 C 166.28125 21.699219 166.753906 21.625 167.246094 21.601562 C 167.738281 21.582031 168.242188 21.609375 168.761719 21.6875 C 169.277344 21.769531 169.800781 21.898438 170.324219 22.078125 C 170.847656 22.253906 171.363281 22.480469 171.875 22.753906 C 172.382812 23.023438 172.875 23.335938 173.351562 23.691406 C 173.824219 24.046875 174.273438 24.433594 174.695312 24.855469 Z M 174.695312 24.855469 " fill-opacity="1" fill-rule="nonzero"/></g></g></g><g clip-path="url(#71c69e41cb)"><g clip-path="url(#ba7ee53984)"><g clip-path="url(#21e0a3eff0)"><path fill="#0ea5e9" d="M 122.417969 77.078125 C 122.839844 77.5 123.226562 77.949219 123.582031 78.421875 C 123.9375 78.898438 124.25 79.390625 124.519531 79.898438 C 124.792969 80.410156 125.019531 80.925781 125.199219 81.449219 C 125.375 81.972656 125.503906 82.492188 125.585938 83.011719 C 125.664062 83.53125 125.691406 84.035156 125.671875 84.527344 C 125.648438 85.019531 125.574219 85.492188 125.449219 85.941406 C 125.324219 86.386719 125.148438 86.804688 124.929688 87.191406 C 124.707031 87.578125 124.441406 87.925781 124.128906 88.238281 C 123.820312 88.546875 123.472656 88.8125 123.085938 89.035156 C 122.699219 89.257812 122.28125 89.429688 121.832031 89.554688 C 121.386719 89.679688 120.914062 89.753906 120.421875 89.777344 C 119.929688 89.800781 119.421875 89.773438 118.90625 89.691406 C 118.386719 89.613281 117.867188 89.484375 117.34375 89.304688 C 116.820312 89.125 116.300781 88.898438 115.792969 88.628906 C 115.285156 88.355469 114.792969 88.042969 114.316406 87.6875 C 113.839844 87.335938 113.394531 86.945312 112.96875 86.523438 C 112.546875 86.101562 112.160156 85.652344 111.804688 85.175781 C 111.449219 84.703125 111.136719 84.210938 110.867188 83.699219 C 110.59375 83.191406 110.367188 82.675781 110.191406 82.152344 C 110.011719 81.628906 109.882812 81.105469 109.800781 80.589844 C 109.722656 80.070312 109.695312 79.566406 109.71875 79.070312 C 109.738281 78.578125 109.8125 78.109375 109.9375 77.660156 C 110.0625 77.210938 110.238281 76.792969 110.457031 76.410156 C 110.679688 76.023438 110.945312 75.671875 111.257812 75.363281 C 111.566406 75.054688 111.914062 74.785156 112.300781 74.566406 C 112.6875 74.34375 113.105469 74.171875 113.554688 74.046875 C 114.003906 73.921875 114.472656 73.847656 114.964844 73.824219 C 115.457031 73.800781 115.964844 73.828125 116.480469 73.910156 C 117 73.988281 117.519531 74.117188 118.042969 74.296875 C 118.570312 74.476562 119.085938 74.699219 119.59375 74.972656 C 120.101562 75.246094 120.59375 75.558594 121.070312 75.910156 C 121.546875 76.265625 121.996094 76.652344 122.417969 77.078125 Z M 122.417969 77.078125 " fill-opacity="1" fill-rule="nonzero"/></g></g></g><g clip-path="url(#46da207146)"><g clip-path="url(#22d4f7e449)"><g clip-path="url(#7e372e123f)"><path fill="#0ea5e9" d="M 175.011719 86.832031 C 174.585938 87.253906 174.136719 87.644531 173.664062 87.996094 C 173.1875 88.351562 172.695312 88.664062 172.1875 88.933594 C 171.675781 89.207031 171.160156 89.433594 170.636719 89.613281 C 170.113281 89.789062 169.59375 89.921875 169.074219 90 C 168.554688 90.078125 168.050781 90.109375 167.558594 90.085938 C 167.066406 90.0625 166.59375 89.988281 166.148438 89.863281 C 165.699219 89.738281 165.28125 89.566406 164.894531 89.34375 C 164.507812 89.121094 164.160156 88.855469 163.847656 88.546875 C 163.539062 88.234375 163.273438 87.886719 163.050781 87.5 C 162.828125 87.113281 162.65625 86.695312 162.53125 86.246094 C 162.40625 85.800781 162.332031 85.328125 162.308594 84.835938 C 162.285156 84.34375 162.316406 83.839844 162.394531 83.320312 C 162.472656 82.800781 162.605469 82.28125 162.78125 81.757812 C 162.960938 81.234375 163.1875 80.71875 163.460938 80.207031 C 163.730469 79.699219 164.042969 79.207031 164.398438 78.730469 C 164.75 78.257812 165.140625 77.808594 165.5625 77.382812 C 165.984375 76.960938 166.433594 76.574219 166.910156 76.21875 C 167.382812 75.867188 167.875 75.550781 168.386719 75.28125 C 168.894531 75.007812 169.410156 74.785156 169.933594 74.605469 C 170.460938 74.425781 170.980469 74.296875 171.5 74.214844 C 172.015625 74.136719 172.523438 74.109375 173.015625 74.132812 C 173.507812 74.15625 173.976562 74.230469 174.425781 74.351562 C 174.875 74.476562 175.292969 74.652344 175.679688 74.875 C 176.066406 75.09375 176.414062 75.359375 176.722656 75.671875 C 177.035156 75.980469 177.300781 76.328125 177.519531 76.714844 C 177.742188 77.101562 177.917969 77.519531 178.042969 77.96875 C 178.164062 78.417969 178.238281 78.886719 178.261719 79.378906 C 178.285156 79.871094 178.257812 80.378906 178.179688 80.894531 C 178.097656 81.414062 177.96875 81.933594 177.789062 82.460938 C 177.609375 82.984375 177.386719 83.5 177.113281 84.007812 C 176.84375 84.519531 176.527344 85.011719 176.175781 85.484375 C 175.820312 85.960938 175.433594 86.410156 175.011719 86.832031 Z M 175.011719 86.832031 " fill-opacity="1" fill-rule="nonzero"/></g></g></g><g clip-path="url(#e14bd53720)"><g clip-path="url(#6fe2c93c34)"><g clip-path="url(#0b05a2bcef)"><path fill="#0ea5e9" d="M 122.679688 34.5 C 122.253906 34.921875 121.804688 35.3125 121.332031 35.664062 C 120.855469 36.019531 120.363281 36.332031 119.855469 36.601562 C 119.347656 36.875 118.828125 37.101562 118.304688 37.28125 C 117.78125 37.460938 117.261719 37.589844 116.742188 37.667969 C 116.222656 37.746094 115.71875 37.777344 115.226562 37.753906 C 114.734375 37.730469 114.261719 37.65625 113.816406 37.53125 C 113.367188 37.40625 112.949219 37.234375 112.5625 37.011719 C 112.175781 36.789062 111.828125 36.523438 111.515625 36.214844 C 111.207031 35.902344 110.941406 35.554688 110.71875 35.167969 C 110.496094 34.78125 110.324219 34.363281 110.199219 33.914062 C 110.074219 33.46875 110 32.996094 109.976562 32.503906 C 109.953125 32.011719 109.984375 31.507812 110.0625 30.988281 C 110.140625 30.46875 110.273438 29.949219 110.449219 29.425781 C 110.628906 28.902344 110.855469 28.386719 111.128906 27.875 C 111.398438 27.367188 111.710938 26.875 112.066406 26.398438 C 112.421875 25.925781 112.808594 25.476562 113.230469 25.054688 C 113.652344 24.628906 114.101562 24.242188 114.578125 23.886719 C 115.050781 23.535156 115.542969 23.21875 116.054688 22.949219 C 116.5625 22.675781 117.078125 22.453125 117.601562 22.273438 C 118.128906 22.09375 118.648438 21.964844 119.167969 21.882812 C 119.683594 21.804688 120.191406 21.777344 120.683594 21.800781 C 121.175781 21.824219 121.644531 21.898438 122.09375 22.019531 C 122.542969 22.144531 122.960938 22.320312 123.347656 22.542969 C 123.734375 22.761719 124.082031 23.027344 124.390625 23.339844 C 124.703125 23.648438 124.96875 23.996094 125.191406 24.382812 C 125.410156 24.769531 125.585938 25.1875 125.710938 25.636719 C 125.835938 26.085938 125.90625 26.554688 125.929688 27.046875 C 125.953125 27.539062 125.925781 28.046875 125.847656 28.5625 C 125.765625 29.082031 125.636719 29.601562 125.457031 30.128906 C 125.277344 30.652344 125.054688 31.167969 124.78125 31.675781 C 124.511719 32.1875 124.195312 32.679688 123.84375 33.152344 C 123.488281 33.628906 123.101562 34.078125 122.679688 34.5 Z M 122.679688 34.5 " fill-opacity="1" fill-rule="nonzero"/></g></g></g><g clip-path="url(#041fffe7be)"><path fill="#0ea5e9" d="M 125.09375 55.78125 C 125.09375 56.480469 125.039062 57.175781 124.921875 57.863281 C 124.808594 58.550781 124.636719 59.21875 124.410156 59.867188 C 124.1875 60.515625 123.910156 61.132812 123.582031 61.714844 C 123.253906 62.296875 122.882812 62.835938 122.464844 63.332031 C 122.046875 63.828125 121.59375 64.273438 121.105469 64.664062 C 120.613281 65.050781 120.097656 65.382812 119.550781 65.648438 C 119.007812 65.917969 118.445312 66.121094 117.867188 66.257812 C 117.289062 66.394531 116.707031 66.464844 116.117188 66.464844 C 115.527344 66.464844 114.941406 66.394531 114.363281 66.257812 C 113.785156 66.121094 113.226562 65.917969 112.679688 65.648438 C 112.136719 65.382812 111.617188 65.050781 111.128906 64.664062 C 110.636719 64.273438 110.183594 63.828125 109.765625 63.332031 C 109.351562 62.835938 108.976562 62.296875 108.652344 61.714844 C 108.324219 61.132812 108.046875 60.515625 107.820312 59.867188 C 107.59375 59.21875 107.425781 58.550781 107.308594 57.863281 C 107.195312 57.175781 107.136719 56.480469 107.136719 55.78125 C 107.136719 55.078125 107.195312 54.382812 107.308594 53.695312 C 107.425781 53.007812 107.59375 52.339844 107.820312 51.691406 C 108.046875 51.042969 108.324219 50.425781 108.652344 49.84375 C 108.976562 49.261719 109.351562 48.722656 109.765625 48.226562 C 110.183594 47.730469 110.636719 47.285156 111.128906 46.898438 C 111.617188 46.507812 112.136719 46.179688 112.679688 45.910156 C 113.226562 45.640625 113.785156 45.4375 114.363281 45.300781 C 114.941406 45.164062 115.527344 45.097656 116.117188 45.097656 C 116.707031 45.097656 117.289062 45.164062 117.867188 45.300781 C 118.445312 45.4375 119.007812 45.640625 119.550781 45.910156 C 120.097656 46.179688 120.613281 46.507812 121.105469 46.898438 C 121.59375 47.285156 122.046875 47.730469 122.464844 48.226562 C 122.882812 48.722656 123.253906 49.261719 123.582031 49.84375 C 123.910156 50.425781 124.1875 51.042969 124.410156 51.691406 C 124.636719 52.339844 124.808594 53.007812 124.921875 53.695312 C 125.039062 54.382812 125.09375 55.078125 125.09375 55.78125 Z M 125.09375 55.78125 " fill-opacity="1" fill-rule="nonzero"/></g><g clip-path="url(#8cd161f3b6)"><path fill="#0ea5e9" d="M 144 93.613281 C 143.296875 93.613281 142.601562 93.554688 141.914062 93.441406 C 141.226562 93.324219 140.558594 93.15625 139.910156 92.929688 C 139.261719 92.703125 138.648438 92.429688 138.0625 92.101562 C 137.480469 91.773438 136.941406 91.402344 136.445312 90.984375 C 135.949219 90.566406 135.503906 90.113281 135.117188 89.625 C 134.726562 89.132812 134.398438 88.617188 134.128906 88.070312 C 133.859375 87.527344 133.65625 86.964844 133.519531 86.386719 C 133.382812 85.808594 133.316406 85.222656 133.316406 84.636719 C 133.316406 84.046875 133.382812 83.460938 133.519531 82.882812 C 133.65625 82.304688 133.859375 81.742188 134.128906 81.199219 C 134.398438 80.652344 134.726562 80.136719 135.117188 79.648438 C 135.503906 79.15625 135.949219 78.703125 136.445312 78.285156 C 136.941406 77.867188 137.480469 77.496094 138.0625 77.167969 C 138.648438 76.84375 139.261719 76.566406 139.910156 76.339844 C 140.558594 76.113281 141.226562 75.945312 141.914062 75.828125 C 142.601562 75.714844 143.296875 75.65625 144 75.65625 C 144.699219 75.65625 145.394531 75.714844 146.082031 75.828125 C 146.769531 75.945312 147.4375 76.113281 148.085938 76.339844 C 148.734375 76.566406 149.351562 76.84375 149.933594 77.167969 C 150.515625 77.496094 151.058594 77.867188 151.554688 78.285156 C 152.050781 78.703125 152.492188 79.15625 152.882812 79.648438 C 153.269531 80.136719 153.601562 80.652344 153.867188 81.199219 C 154.136719 81.742188 154.339844 82.304688 154.476562 82.882812 C 154.613281 83.460938 154.683594 84.046875 154.683594 84.636719 C 154.683594 85.222656 154.613281 85.808594 154.476562 86.386719 C 154.339844 86.964844 154.136719 87.527344 153.867188 88.070312 C 153.601562 88.617188 153.269531 89.132812 152.882812 89.625 C 152.492188 90.113281 152.050781 90.566406 151.554688 90.984375 C 151.058594 91.402344 150.515625 91.773438 149.933594 92.101562 C 149.351562 92.429688 148.734375 92.703125 148.085938 92.929688 C 147.4375 93.15625 146.769531 93.324219 146.082031 93.441406 C 145.394531 93.554688 144.699219 93.613281 144 93.613281 Z M 144 93.613281 " fill-opacity="1" fill-rule="nonzero"/></g><g clip-path="url(#95c496687d)"><path fill="#0ea5e9" d="M 143.972656 37.15625 C 143.269531 37.15625 142.578125 37.097656 141.886719 36.984375 C 141.199219 36.871094 140.53125 36.699219 139.882812 36.472656 C 139.234375 36.246094 138.621094 35.972656 138.039062 35.644531 C 137.453125 35.316406 136.914062 34.945312 136.417969 34.527344 C 135.921875 34.109375 135.480469 33.65625 135.089844 33.167969 C 134.699219 32.675781 134.371094 32.160156 134.101562 31.613281 C 133.835938 31.070312 133.632812 30.507812 133.496094 29.929688 C 133.359375 29.351562 133.289062 28.769531 133.289062 28.179688 C 133.289062 27.589844 133.359375 27.003906 133.496094 26.425781 C 133.632812 25.847656 133.835938 25.285156 134.101562 24.742188 C 134.371094 24.199219 134.699219 23.679688 135.089844 23.191406 C 135.480469 22.699219 135.921875 22.246094 136.417969 21.828125 C 136.914062 21.414062 137.453125 21.039062 138.039062 20.710938 C 138.621094 20.386719 139.234375 20.109375 139.882812 19.882812 C 140.53125 19.65625 141.199219 19.488281 141.886719 19.371094 C 142.578125 19.257812 143.269531 19.199219 143.972656 19.199219 C 144.675781 19.199219 145.367188 19.257812 146.058594 19.371094 C 146.746094 19.488281 147.414062 19.65625 148.0625 19.882812 C 148.707031 20.109375 149.324219 20.386719 149.90625 20.710938 C 150.492188 21.039062 151.03125 21.414062 151.527344 21.828125 C 152.023438 22.246094 152.464844 22.699219 152.855469 23.191406 C 153.246094 23.679688 153.574219 24.199219 153.84375 24.742188 C 154.109375 25.285156 154.3125 25.847656 154.449219 26.425781 C 154.585938 27.003906 154.65625 27.589844 154.65625 28.179688 C 154.65625 28.769531 154.585938 29.351562 154.449219 29.929688 C 154.3125 30.507812 154.109375 31.070312 153.84375 31.613281 C 153.574219 32.160156 153.246094 32.675781 152.855469 33.167969 C 152.464844 33.65625 152.023438 34.109375 151.527344 34.527344 C 151.03125 34.945312 150.492188 35.316406 149.90625 35.644531 C 149.324219 35.972656 148.707031 36.246094 148.0625 36.472656 C 147.414062 36.699219 146.746094 36.871094 146.058594 36.984375 C 145.367188 37.097656 144.675781 37.15625 143.972656 37.15625 Z M 143.972656 37.15625 " fill-opacity="1" fill-rule="nonzero"/></g><g clip-path="url(#7fe9e47eef)"><path fill="#0ea5e9" d="M 181.488281 55.839844 C 181.488281 56.542969 181.429688 57.238281 181.316406 57.925781 C 181.199219 58.613281 181.03125 59.28125 180.804688 59.929688 C 180.578125 60.578125 180.300781 61.191406 179.972656 61.777344 C 179.648438 62.359375 179.273438 62.898438 178.859375 63.394531 C 178.441406 63.890625 177.988281 64.335938 177.496094 64.722656 C 177.007812 65.113281 176.488281 65.441406 175.945312 65.710938 C 175.398438 65.980469 174.839844 66.183594 174.261719 66.320312 C 173.683594 66.457031 173.097656 66.523438 172.507812 66.523438 C 171.917969 66.523438 171.335938 66.457031 170.757812 66.320312 C 170.179688 66.183594 169.617188 65.980469 169.074219 65.710938 C 168.527344 65.441406 168.011719 65.113281 167.519531 64.722656 C 167.03125 64.335938 166.578125 63.890625 166.160156 63.394531 C 165.742188 62.898438 165.371094 62.359375 165.042969 61.777344 C 164.714844 61.191406 164.4375 60.578125 164.214844 59.929688 C 163.988281 59.28125 163.816406 58.613281 163.703125 57.925781 C 163.585938 57.238281 163.53125 56.542969 163.53125 55.839844 C 163.53125 55.140625 163.585938 54.445312 163.703125 53.757812 C 163.816406 53.070312 163.988281 52.402344 164.214844 51.753906 C 164.4375 51.105469 164.714844 50.488281 165.042969 49.90625 C 165.371094 49.324219 165.742188 48.78125 166.160156 48.285156 C 166.578125 47.789062 167.03125 47.347656 167.519531 46.957031 C 168.011719 46.570312 168.527344 46.238281 169.074219 45.972656 C 169.617188 45.703125 170.179688 45.5 170.757812 45.363281 C 171.335938 45.226562 171.917969 45.15625 172.507812 45.15625 C 173.097656 45.15625 173.683594 45.226562 174.261719 45.363281 C 174.839844 45.5 175.398438 45.703125 175.945312 45.972656 C 176.488281 46.238281 177.007812 46.570312 177.496094 46.957031 C 177.988281 47.347656 178.441406 47.789062 178.859375 48.285156 C 179.273438 48.78125 179.648438 49.324219 179.972656 49.90625 C 180.300781 50.488281 180.578125 51.105469 180.804688 51.753906 C 181.03125 52.402344 181.199219 53.070312 181.316406 53.757812 C 181.429688 54.445312 181.488281 55.140625 181.488281 55.839844 Z M 181.488281 55.839844 " fill-opacity="1" fill-rule="nonzero"/></g><g clip-path="url(#5e90eec210)"><path fill="#0ea5e9" d="M 143.90625 45.128906 C 149.855469 45.128906 154.675781 49.949219 154.675781 55.898438 C 154.675781 61.847656 149.855469 66.667969 143.90625 66.667969 C 137.957031 66.667969 133.132812 61.847656 133.132812 55.898438 C 133.132812 49.949219 137.957031 45.128906 143.90625 45.128906 Z M 143.90625 45.128906 " fill-opacity="1" fill-rule="nonzero"/></g></svg>